<mxfile host="Electron" modified="2024-04-22T05:55:42.391Z" agent="Mozilla/5.0 (Windows NT 10.0; Win64; x64) AppleWebKit/537.36 (KHTML, like Gecko) draw.io/24.2.5 Chrome/120.0.6099.109 Electron/28.1.0 Safari/537.36" etag="fFbIv_g1uSApacMS0A7w" version="24.2.5" type="device">
  <diagram name="第 1 页" id="K_S9GXQS6S3qCtv45Iwr">
    <mxGraphModel dx="910" dy="1033" grid="1" gridSize="10" guides="1" tooltips="1" connect="1" arrows="1" fold="1" page="1" pageScale="1" pageWidth="827" pageHeight="1169" math="0" shadow="0">
      <root>
        <mxCell id="0" />
        <mxCell id="1" parent="0" />
        <mxCell id="VPpi0ZDXjn2bA-3UAf1F-33" style="edgeStyle=orthogonalEdgeStyle;curved=0;rounded=1;orthogonalLoop=1;jettySize=auto;html=1;exitX=0.5;exitY=1;exitDx=0;exitDy=0;entryX=0.5;entryY=0;entryDx=0;entryDy=0;strokeColor=default;align=center;verticalAlign=middle;fontFamily=Helvetica;fontSize=11;fontColor=default;labelBackgroundColor=default;endArrow=none;endFill=0;" parent="1" source="VPpi0ZDXjn2bA-3UAf1F-1" target="VPpi0ZDXjn2bA-3UAf1F-18" edge="1">
          <mxGeometry relative="1" as="geometry" />
        </mxCell>
        <mxCell id="VPpi0ZDXjn2bA-3UAf1F-34" style="edgeStyle=orthogonalEdgeStyle;curved=0;rounded=1;orthogonalLoop=1;jettySize=auto;html=1;exitX=0.5;exitY=1;exitDx=0;exitDy=0;entryX=0.5;entryY=0;entryDx=0;entryDy=0;strokeColor=default;align=center;verticalAlign=middle;fontFamily=Helvetica;fontSize=11;fontColor=default;labelBackgroundColor=default;endArrow=none;endFill=0;" parent="1" source="VPpi0ZDXjn2bA-3UAf1F-1" target="VPpi0ZDXjn2bA-3UAf1F-5" edge="1">
          <mxGeometry relative="1" as="geometry" />
        </mxCell>
        <mxCell id="VPpi0ZDXjn2bA-3UAf1F-35" style="edgeStyle=orthogonalEdgeStyle;curved=0;rounded=1;orthogonalLoop=1;jettySize=auto;html=1;exitX=0.5;exitY=1;exitDx=0;exitDy=0;entryX=0.5;entryY=0;entryDx=0;entryDy=0;strokeColor=default;align=center;verticalAlign=middle;fontFamily=Helvetica;fontSize=11;fontColor=default;labelBackgroundColor=default;endArrow=none;endFill=0;" parent="1" source="VPpi0ZDXjn2bA-3UAf1F-1" target="VPpi0ZDXjn2bA-3UAf1F-4" edge="1">
          <mxGeometry relative="1" as="geometry" />
        </mxCell>
        <mxCell id="VPpi0ZDXjn2bA-3UAf1F-36" style="edgeStyle=orthogonalEdgeStyle;curved=0;rounded=1;orthogonalLoop=1;jettySize=auto;html=1;exitX=0.5;exitY=1;exitDx=0;exitDy=0;entryX=0.5;entryY=0;entryDx=0;entryDy=0;strokeColor=default;align=center;verticalAlign=middle;fontFamily=Helvetica;fontSize=11;fontColor=default;labelBackgroundColor=default;endArrow=none;endFill=0;" parent="1" source="VPpi0ZDXjn2bA-3UAf1F-1" target="VPpi0ZDXjn2bA-3UAf1F-6" edge="1">
          <mxGeometry relative="1" as="geometry" />
        </mxCell>
        <mxCell id="VPpi0ZDXjn2bA-3UAf1F-37" style="edgeStyle=orthogonalEdgeStyle;curved=0;rounded=1;orthogonalLoop=1;jettySize=auto;html=1;exitX=0.5;exitY=1;exitDx=0;exitDy=0;entryX=0.5;entryY=0;entryDx=0;entryDy=0;strokeColor=default;align=center;verticalAlign=middle;fontFamily=Helvetica;fontSize=11;fontColor=default;labelBackgroundColor=default;endArrow=none;endFill=0;" parent="1" source="VPpi0ZDXjn2bA-3UAf1F-1" target="VPpi0ZDXjn2bA-3UAf1F-3" edge="1">
          <mxGeometry relative="1" as="geometry" />
        </mxCell>
        <mxCell id="VPpi0ZDXjn2bA-3UAf1F-38" style="edgeStyle=orthogonalEdgeStyle;curved=0;rounded=1;orthogonalLoop=1;jettySize=auto;html=1;exitX=0.5;exitY=1;exitDx=0;exitDy=0;entryX=0.5;entryY=0;entryDx=0;entryDy=0;strokeColor=default;align=center;verticalAlign=middle;fontFamily=Helvetica;fontSize=11;fontColor=default;labelBackgroundColor=default;endArrow=none;endFill=0;" parent="1" source="VPpi0ZDXjn2bA-3UAf1F-1" target="VPpi0ZDXjn2bA-3UAf1F-2" edge="1">
          <mxGeometry relative="1" as="geometry" />
        </mxCell>
        <mxCell id="VPpi0ZDXjn2bA-3UAf1F-39" style="edgeStyle=orthogonalEdgeStyle;curved=0;rounded=1;orthogonalLoop=1;jettySize=auto;html=1;exitX=0.5;exitY=1;exitDx=0;exitDy=0;entryX=0.5;entryY=0;entryDx=0;entryDy=0;strokeColor=default;align=center;verticalAlign=middle;fontFamily=Helvetica;fontSize=11;fontColor=default;labelBackgroundColor=default;endArrow=none;endFill=0;" parent="1" source="VPpi0ZDXjn2bA-3UAf1F-1" target="VPpi0ZDXjn2bA-3UAf1F-7" edge="1">
          <mxGeometry relative="1" as="geometry" />
        </mxCell>
        <mxCell id="VPpi0ZDXjn2bA-3UAf1F-1" value="Apache2配置文件" style="rounded=1;whiteSpace=wrap;html=1;fillColor=#a20025;fontColor=#ffffff;strokeColor=#6F0000;fontStyle=1;fontSize=14;" parent="1" vertex="1">
          <mxGeometry x="760" y="70" width="140" height="60" as="geometry" />
        </mxCell>
        <mxCell id="VPpi0ZDXjn2bA-3UAf1F-10" style="edgeStyle=orthogonalEdgeStyle;rounded=1;orthogonalLoop=1;jettySize=auto;html=1;exitX=0.5;exitY=1;exitDx=0;exitDy=0;entryX=0.5;entryY=0;entryDx=0;entryDy=0;curved=0;endArrow=none;endFill=0;" parent="1" source="VPpi0ZDXjn2bA-3UAf1F-2" target="VPpi0ZDXjn2bA-3UAf1F-8" edge="1">
          <mxGeometry relative="1" as="geometry" />
        </mxCell>
        <mxCell id="VPpi0ZDXjn2bA-3UAf1F-2" value="主配置文件" style="rounded=1;whiteSpace=wrap;html=1;fillColor=#fff2cc;strokeColor=#d6b656;fontStyle=1" parent="1" vertex="1">
          <mxGeometry x="30" y="210" width="120" height="50" as="geometry" />
        </mxCell>
        <mxCell id="VPpi0ZDXjn2bA-3UAf1F-13" style="edgeStyle=orthogonalEdgeStyle;curved=0;rounded=1;orthogonalLoop=1;jettySize=auto;html=1;exitX=0.5;exitY=1;exitDx=0;exitDy=0;entryX=0.5;entryY=0;entryDx=0;entryDy=0;strokeColor=default;align=center;verticalAlign=middle;fontFamily=Helvetica;fontSize=11;fontColor=default;labelBackgroundColor=default;endArrow=none;endFill=0;" parent="1" source="VPpi0ZDXjn2bA-3UAf1F-3" target="VPpi0ZDXjn2bA-3UAf1F-11" edge="1">
          <mxGeometry relative="1" as="geometry" />
        </mxCell>
        <mxCell id="VPpi0ZDXjn2bA-3UAf1F-14" style="edgeStyle=orthogonalEdgeStyle;curved=0;rounded=1;orthogonalLoop=1;jettySize=auto;html=1;exitX=0.5;exitY=1;exitDx=0;exitDy=0;entryX=0.5;entryY=0;entryDx=0;entryDy=0;strokeColor=default;align=center;verticalAlign=middle;fontFamily=Helvetica;fontSize=11;fontColor=default;labelBackgroundColor=default;endArrow=none;endFill=0;" parent="1" source="VPpi0ZDXjn2bA-3UAf1F-3" target="VPpi0ZDXjn2bA-3UAf1F-12" edge="1">
          <mxGeometry relative="1" as="geometry" />
        </mxCell>
        <mxCell id="VPpi0ZDXjn2bA-3UAf1F-3" value="子配置文件" style="rounded=1;whiteSpace=wrap;html=1;fillColor=#fff2cc;strokeColor=#d6b656;fontStyle=1" parent="1" vertex="1">
          <mxGeometry x="260" y="210" width="120" height="50" as="geometry" />
        </mxCell>
        <mxCell id="VPpi0ZDXjn2bA-3UAf1F-16" style="edgeStyle=orthogonalEdgeStyle;curved=0;rounded=1;orthogonalLoop=1;jettySize=auto;html=1;exitX=0.5;exitY=1;exitDx=0;exitDy=0;entryX=0.5;entryY=0;entryDx=0;entryDy=0;strokeColor=default;align=center;verticalAlign=middle;fontFamily=Helvetica;fontSize=11;fontColor=default;labelBackgroundColor=default;endArrow=none;endFill=0;" parent="1" source="VPpi0ZDXjn2bA-3UAf1F-4" target="VPpi0ZDXjn2bA-3UAf1F-15" edge="1">
          <mxGeometry relative="1" as="geometry" />
        </mxCell>
        <mxCell id="VPpi0ZDXjn2bA-3UAf1F-4" value="全员环境变量" style="rounded=1;whiteSpace=wrap;html=1;fillColor=#fff2cc;strokeColor=#d6b656;fontStyle=1" parent="1" vertex="1">
          <mxGeometry x="500" y="210" width="120" height="50" as="geometry" />
        </mxCell>
        <mxCell id="VPpi0ZDXjn2bA-3UAf1F-23" style="edgeStyle=orthogonalEdgeStyle;curved=0;rounded=1;orthogonalLoop=1;jettySize=auto;html=1;exitX=0.5;exitY=1;exitDx=0;exitDy=0;entryX=0.5;entryY=0;entryDx=0;entryDy=0;strokeColor=default;align=center;verticalAlign=middle;fontFamily=Helvetica;fontSize=11;fontColor=default;labelBackgroundColor=default;endArrow=none;endFill=0;" parent="1" source="VPpi0ZDXjn2bA-3UAf1F-5" target="VPpi0ZDXjn2bA-3UAf1F-21" edge="1">
          <mxGeometry relative="1" as="geometry" />
        </mxCell>
        <mxCell id="VPpi0ZDXjn2bA-3UAf1F-24" style="edgeStyle=orthogonalEdgeStyle;curved=0;rounded=1;orthogonalLoop=1;jettySize=auto;html=1;exitX=0.5;exitY=1;exitDx=0;exitDy=0;entryX=0.5;entryY=0;entryDx=0;entryDy=0;strokeColor=default;align=center;verticalAlign=middle;fontFamily=Helvetica;fontSize=11;fontColor=default;labelBackgroundColor=default;endArrow=none;endFill=0;" parent="1" source="VPpi0ZDXjn2bA-3UAf1F-5" target="VPpi0ZDXjn2bA-3UAf1F-22" edge="1">
          <mxGeometry relative="1" as="geometry" />
        </mxCell>
        <mxCell id="VPpi0ZDXjn2bA-3UAf1F-5" value="模块配置" style="rounded=1;whiteSpace=wrap;html=1;fillColor=#fff2cc;strokeColor=#d6b656;fontStyle=1" parent="1" vertex="1">
          <mxGeometry x="880" y="210" width="120" height="50" as="geometry" />
        </mxCell>
        <mxCell id="VPpi0ZDXjn2bA-3UAf1F-30" style="edgeStyle=orthogonalEdgeStyle;curved=0;rounded=1;orthogonalLoop=1;jettySize=auto;html=1;exitX=0.5;exitY=1;exitDx=0;exitDy=0;entryX=0.5;entryY=0;entryDx=0;entryDy=0;strokeColor=default;align=center;verticalAlign=middle;fontFamily=Helvetica;fontSize=11;fontColor=default;labelBackgroundColor=default;endArrow=none;endFill=0;" parent="1" source="VPpi0ZDXjn2bA-3UAf1F-6" target="VPpi0ZDXjn2bA-3UAf1F-25" edge="1">
          <mxGeometry relative="1" as="geometry" />
        </mxCell>
        <mxCell id="VPpi0ZDXjn2bA-3UAf1F-6" value="默认端口配置" style="rounded=1;whiteSpace=wrap;html=1;fillColor=#fff2cc;strokeColor=#d6b656;fontStyle=1" parent="1" vertex="1">
          <mxGeometry x="1121" y="210" width="120" height="50" as="geometry" />
        </mxCell>
        <mxCell id="VPpi0ZDXjn2bA-3UAf1F-28" style="edgeStyle=orthogonalEdgeStyle;curved=0;rounded=1;orthogonalLoop=1;jettySize=auto;html=1;exitX=0.5;exitY=1;exitDx=0;exitDy=0;entryX=0.5;entryY=0;entryDx=0;entryDy=0;strokeColor=default;align=center;verticalAlign=middle;fontFamily=Helvetica;fontSize=11;fontColor=default;labelBackgroundColor=default;endArrow=none;endFill=0;" parent="1" source="VPpi0ZDXjn2bA-3UAf1F-7" target="VPpi0ZDXjn2bA-3UAf1F-26" edge="1">
          <mxGeometry relative="1" as="geometry" />
        </mxCell>
        <mxCell id="VPpi0ZDXjn2bA-3UAf1F-29" style="edgeStyle=orthogonalEdgeStyle;curved=0;rounded=1;orthogonalLoop=1;jettySize=auto;html=1;exitX=0.5;exitY=1;exitDx=0;exitDy=0;entryX=0.5;entryY=0;entryDx=0;entryDy=0;strokeColor=default;align=center;verticalAlign=middle;fontFamily=Helvetica;fontSize=11;fontColor=default;labelBackgroundColor=default;endArrow=none;endFill=0;" parent="1" source="VPpi0ZDXjn2bA-3UAf1F-7" target="VPpi0ZDXjn2bA-3UAf1F-27" edge="1">
          <mxGeometry relative="1" as="geometry" />
        </mxCell>
        <mxCell id="VPpi0ZDXjn2bA-3UAf1F-7" value="虚拟主机配置" style="rounded=1;whiteSpace=wrap;html=1;fillColor=#fff2cc;strokeColor=#d6b656;fontStyle=1" parent="1" vertex="1">
          <mxGeometry x="1360" y="210" width="120" height="50" as="geometry" />
        </mxCell>
        <mxCell id="VPpi0ZDXjn2bA-3UAf1F-8" value="apache2.conf" style="rounded=1;whiteSpace=wrap;html=1;fillColor=#fff2cc;strokeColor=#d6b656;fontStyle=1" parent="1" vertex="1">
          <mxGeometry x="30" y="320" width="120" height="50" as="geometry" />
        </mxCell>
        <mxCell id="VPpi0ZDXjn2bA-3UAf1F-11" value="conf-available" style="rounded=1;whiteSpace=wrap;html=1;fillColor=#fff2cc;strokeColor=#d6b656;fontStyle=1" parent="1" vertex="1">
          <mxGeometry x="180" y="320" width="120" height="50" as="geometry" />
        </mxCell>
        <mxCell id="VPpi0ZDXjn2bA-3UAf1F-12" value="conf-enabled" style="rounded=1;whiteSpace=wrap;html=1;fillColor=#fff2cc;strokeColor=#d6b656;fontStyle=1" parent="1" vertex="1">
          <mxGeometry x="340" y="320" width="120" height="50" as="geometry" />
        </mxCell>
        <mxCell id="VPpi0ZDXjn2bA-3UAf1F-15" value="envvars" style="rounded=1;whiteSpace=wrap;html=1;fillColor=#fff2cc;strokeColor=#d6b656;fontStyle=1" parent="1" vertex="1">
          <mxGeometry x="500" y="320" width="120" height="50" as="geometry" />
        </mxCell>
        <mxCell id="VPpi0ZDXjn2bA-3UAf1F-20" style="edgeStyle=orthogonalEdgeStyle;curved=0;rounded=1;orthogonalLoop=1;jettySize=auto;html=1;exitX=0.5;exitY=1;exitDx=0;exitDy=0;entryX=0.5;entryY=0;entryDx=0;entryDy=0;strokeColor=default;align=center;verticalAlign=middle;fontFamily=Helvetica;fontSize=11;fontColor=default;labelBackgroundColor=default;endArrow=none;endFill=0;" parent="1" source="VPpi0ZDXjn2bA-3UAf1F-18" target="VPpi0ZDXjn2bA-3UAf1F-19" edge="1">
          <mxGeometry relative="1" as="geometry" />
        </mxCell>
        <mxCell id="VPpi0ZDXjn2bA-3UAf1F-18" value="MIME类型配置文件" style="rounded=1;whiteSpace=wrap;html=1;fillColor=#fff2cc;strokeColor=#d6b656;fontStyle=1" parent="1" vertex="1">
          <mxGeometry x="660" y="210" width="120" height="50" as="geometry" />
        </mxCell>
        <mxCell id="VPpi0ZDXjn2bA-3UAf1F-19" value="magic" style="rounded=1;whiteSpace=wrap;html=1;fillColor=#fff2cc;strokeColor=#d6b656;fontStyle=1" parent="1" vertex="1">
          <mxGeometry x="670" y="320" width="100" height="50" as="geometry" />
        </mxCell>
        <mxCell id="VPpi0ZDXjn2bA-3UAf1F-21" value="mods-available" style="rounded=1;whiteSpace=wrap;html=1;fillColor=#fff2cc;strokeColor=#d6b656;fontStyle=1" parent="1" vertex="1">
          <mxGeometry x="800" y="320" width="120" height="50" as="geometry" />
        </mxCell>
        <mxCell id="VPpi0ZDXjn2bA-3UAf1F-22" value="mods-enabled" style="rounded=1;whiteSpace=wrap;html=1;fillColor=#fff2cc;strokeColor=#d6b656;fontStyle=1" parent="1" vertex="1">
          <mxGeometry x="960" y="320" width="120" height="50" as="geometry" />
        </mxCell>
        <mxCell id="VPpi0ZDXjn2bA-3UAf1F-25" value="ports.conf" style="rounded=1;whiteSpace=wrap;html=1;fillColor=#fff2cc;strokeColor=#d6b656;fontStyle=1" parent="1" vertex="1">
          <mxGeometry x="1121" y="320" width="120" height="50" as="geometry" />
        </mxCell>
        <mxCell id="VPpi0ZDXjn2bA-3UAf1F-26" value="sites-available" style="rounded=1;whiteSpace=wrap;html=1;fillColor=#fff2cc;strokeColor=#d6b656;fontStyle=1" parent="1" vertex="1">
          <mxGeometry x="1280" y="320" width="120" height="50" as="geometry" />
        </mxCell>
        <mxCell id="VPpi0ZDXjn2bA-3UAf1F-27" value="sites-enabled" style="rounded=1;whiteSpace=wrap;html=1;fillColor=#fff2cc;strokeColor=#d6b656;fontStyle=1" parent="1" vertex="1">
          <mxGeometry x="1440" y="320" width="120" height="50" as="geometry" />
        </mxCell>
        <mxCell id="VPpi0ZDXjn2bA-3UAf1F-40" value="Apache配置修改1" style="rounded=1;whiteSpace=wrap;html=1;fillColor=#0050ef;fontColor=#ffffff;strokeColor=#001DBC;fontStyle=1;fontSize=14;" parent="1" vertex="1">
          <mxGeometry x="760" y="540" width="140" height="60" as="geometry" />
        </mxCell>
        <mxCell id="VPpi0ZDXjn2bA-3UAf1F-45" style="edgeStyle=orthogonalEdgeStyle;curved=0;rounded=1;orthogonalLoop=1;jettySize=auto;html=1;exitX=0.5;exitY=1;exitDx=0;exitDy=0;entryX=0.5;entryY=0;entryDx=0;entryDy=0;strokeColor=default;align=center;verticalAlign=middle;fontFamily=Helvetica;fontSize=11;fontColor=default;labelBackgroundColor=default;endArrow=none;endFill=0;" parent="1" source="VPpi0ZDXjn2bA-3UAf1F-41" target="VPpi0ZDXjn2bA-3UAf1F-44" edge="1">
          <mxGeometry relative="1" as="geometry" />
        </mxCell>
        <mxCell id="VPpi0ZDXjn2bA-3UAf1F-41" value="配置数据压缩" style="rounded=1;whiteSpace=wrap;html=1;fillColor=#dae8fc;strokeColor=#6c8ebf;fontStyle=1" parent="1" vertex="1">
          <mxGeometry x="60" y="670" width="120" height="50" as="geometry" />
        </mxCell>
        <mxCell id="VPpi0ZDXjn2bA-3UAf1F-47" style="edgeStyle=orthogonalEdgeStyle;curved=0;rounded=1;orthogonalLoop=1;jettySize=auto;html=1;exitX=0.5;exitY=1;exitDx=0;exitDy=0;entryX=0.5;entryY=0;entryDx=0;entryDy=0;strokeColor=default;align=center;verticalAlign=middle;fontFamily=Helvetica;fontSize=11;fontColor=default;labelBackgroundColor=default;endArrow=none;endFill=0;" parent="1" source="VPpi0ZDXjn2bA-3UAf1F-42" target="VPpi0ZDXjn2bA-3UAf1F-46" edge="1">
          <mxGeometry relative="1" as="geometry" />
        </mxCell>
        <mxCell id="VPpi0ZDXjn2bA-3UAf1F-42" value="响应头Server字段" style="rounded=1;whiteSpace=wrap;html=1;fillColor=#dae8fc;strokeColor=#6c8ebf;fontStyle=1" parent="1" vertex="1">
          <mxGeometry x="275" y="670" width="120" height="50" as="geometry" />
        </mxCell>
        <mxCell id="VPpi0ZDXjn2bA-3UAf1F-49" style="edgeStyle=orthogonalEdgeStyle;curved=0;rounded=1;orthogonalLoop=1;jettySize=auto;html=1;exitX=0.5;exitY=1;exitDx=0;exitDy=0;entryX=0.5;entryY=0;entryDx=0;entryDy=0;strokeColor=default;align=center;verticalAlign=middle;fontFamily=Helvetica;fontSize=11;fontColor=default;labelBackgroundColor=default;endArrow=none;endFill=0;" parent="1" source="VPpi0ZDXjn2bA-3UAf1F-43" target="VPpi0ZDXjn2bA-3UAf1F-48" edge="1">
          <mxGeometry relative="1" as="geometry" />
        </mxCell>
        <mxCell id="VPpi0ZDXjn2bA-3UAf1F-43" value="配置持久连接" style="rounded=1;whiteSpace=wrap;html=1;fillColor=#dae8fc;strokeColor=#6c8ebf;fontStyle=1" parent="1" vertex="1">
          <mxGeometry x="485" y="670" width="120" height="50" as="geometry" />
        </mxCell>
        <mxCell id="VPpi0ZDXjn2bA-3UAf1F-44" value="mods-enabled/deflate.conf" style="rounded=1;whiteSpace=wrap;html=1;fillColor=#dae8fc;strokeColor=#6c8ebf;fontStyle=1" parent="1" vertex="1">
          <mxGeometry x="25" y="780" width="190" height="50" as="geometry" />
        </mxCell>
        <mxCell id="VPpi0ZDXjn2bA-3UAf1F-46" value="conf-enabled/security.conf" style="rounded=1;whiteSpace=wrap;html=1;fillColor=#dae8fc;strokeColor=#6c8ebf;fontStyle=1" parent="1" vertex="1">
          <mxGeometry x="240" y="780" width="190" height="50" as="geometry" />
        </mxCell>
        <mxCell id="VPpi0ZDXjn2bA-3UAf1F-48" value="apache2.conf" style="rounded=1;whiteSpace=wrap;html=1;fillColor=#dae8fc;strokeColor=#6c8ebf;fontStyle=1" parent="1" vertex="1">
          <mxGeometry x="475" y="780" width="140" height="50" as="geometry" />
        </mxCell>
        <mxCell id="VPpi0ZDXjn2bA-3UAf1F-52" style="edgeStyle=orthogonalEdgeStyle;curved=0;rounded=1;orthogonalLoop=1;jettySize=auto;html=1;exitX=0.5;exitY=1;exitDx=0;exitDy=0;entryX=0.5;entryY=0;entryDx=0;entryDy=0;strokeColor=default;align=center;verticalAlign=middle;fontFamily=Helvetica;fontSize=11;fontColor=default;labelBackgroundColor=default;endArrow=none;endFill=0;" parent="1" source="VPpi0ZDXjn2bA-3UAf1F-50" target="VPpi0ZDXjn2bA-3UAf1F-51" edge="1">
          <mxGeometry relative="1" as="geometry" />
        </mxCell>
        <mxCell id="VPpi0ZDXjn2bA-3UAf1F-50" value="定义路径别名" style="rounded=1;whiteSpace=wrap;html=1;fillColor=#dae8fc;strokeColor=#6c8ebf;fontStyle=1" parent="1" vertex="1">
          <mxGeometry x="682.5" y="670" width="120" height="50" as="geometry" />
        </mxCell>
        <mxCell id="VPpi0ZDXjn2bA-3UAf1F-51" value="apache2.conf" style="rounded=1;whiteSpace=wrap;html=1;fillColor=#dae8fc;strokeColor=#6c8ebf;fontStyle=1" parent="1" vertex="1">
          <mxGeometry x="670" y="780" width="145" height="50" as="geometry" />
        </mxCell>
        <mxCell id="mWiUurkkeSlw8HyRJ1TI-1" value="访问资源控制（权限管理）" style="rounded=1;whiteSpace=wrap;html=1;fillColor=#dae8fc;strokeColor=#6c8ebf;fontStyle=1" vertex="1" parent="1">
          <mxGeometry x="1100" y="670" width="180" height="50" as="geometry" />
        </mxCell>
        <mxCell id="mWiUurkkeSlw8HyRJ1TI-13" style="edgeStyle=orthogonalEdgeStyle;curved=0;rounded=1;orthogonalLoop=1;jettySize=auto;html=1;exitX=0.5;exitY=1;exitDx=0;exitDy=0;entryX=0.5;entryY=0;entryDx=0;entryDy=0;strokeColor=default;align=center;verticalAlign=middle;fontFamily=Helvetica;fontSize=11;fontColor=default;labelBackgroundColor=default;endArrow=none;endFill=0;" edge="1" parent="1" source="mWiUurkkeSlw8HyRJ1TI-2" target="mWiUurkkeSlw8HyRJ1TI-6">
          <mxGeometry relative="1" as="geometry" />
        </mxCell>
        <mxCell id="mWiUurkkeSlw8HyRJ1TI-14" style="edgeStyle=orthogonalEdgeStyle;curved=0;rounded=1;orthogonalLoop=1;jettySize=auto;html=1;exitX=0.5;exitY=1;exitDx=0;exitDy=0;entryX=0.5;entryY=0;entryDx=0;entryDy=0;strokeColor=default;align=center;verticalAlign=middle;fontFamily=Helvetica;fontSize=11;fontColor=default;labelBackgroundColor=default;endArrow=none;endFill=0;" edge="1" parent="1" source="mWiUurkkeSlw8HyRJ1TI-2" target="mWiUurkkeSlw8HyRJ1TI-5">
          <mxGeometry relative="1" as="geometry" />
        </mxCell>
        <mxCell id="mWiUurkkeSlw8HyRJ1TI-15" style="edgeStyle=orthogonalEdgeStyle;curved=0;rounded=1;orthogonalLoop=1;jettySize=auto;html=1;exitX=0.5;exitY=1;exitDx=0;exitDy=0;entryX=0.5;entryY=0;entryDx=0;entryDy=0;strokeColor=default;align=center;verticalAlign=middle;fontFamily=Helvetica;fontSize=11;fontColor=default;labelBackgroundColor=default;endArrow=none;endFill=0;" edge="1" parent="1" source="mWiUurkkeSlw8HyRJ1TI-2" target="mWiUurkkeSlw8HyRJ1TI-7">
          <mxGeometry relative="1" as="geometry" />
        </mxCell>
        <mxCell id="mWiUurkkeSlw8HyRJ1TI-2" value="访问控制作用域" style="rounded=1;whiteSpace=wrap;html=1;fillColor=#dae8fc;strokeColor=#6c8ebf;fontStyle=1" vertex="1" parent="1">
          <mxGeometry x="910" y="780" width="145" height="50" as="geometry" />
        </mxCell>
        <mxCell id="mWiUurkkeSlw8HyRJ1TI-3" value="访问控制配置指令" style="rounded=1;whiteSpace=wrap;html=1;fillColor=#dae8fc;strokeColor=#6c8ebf;fontStyle=1" vertex="1" parent="1">
          <mxGeometry x="1347.5" y="780" width="145" height="50" as="geometry" />
        </mxCell>
        <mxCell id="mWiUurkkeSlw8HyRJ1TI-16" style="edgeStyle=orthogonalEdgeStyle;curved=0;rounded=1;orthogonalLoop=1;jettySize=auto;html=1;exitX=0.5;exitY=1;exitDx=0;exitDy=0;entryX=0.5;entryY=0;entryDx=0;entryDy=0;strokeColor=default;align=center;verticalAlign=middle;fontFamily=Helvetica;fontSize=11;fontColor=default;labelBackgroundColor=default;endArrow=none;endFill=0;" edge="1" parent="1" source="mWiUurkkeSlw8HyRJ1TI-5" target="mWiUurkkeSlw8HyRJ1TI-8">
          <mxGeometry relative="1" as="geometry" />
        </mxCell>
        <mxCell id="mWiUurkkeSlw8HyRJ1TI-17" style="edgeStyle=orthogonalEdgeStyle;curved=0;rounded=1;orthogonalLoop=1;jettySize=auto;html=1;exitX=0.5;exitY=1;exitDx=0;exitDy=0;entryX=0.5;entryY=0;entryDx=0;entryDy=0;strokeColor=default;align=center;verticalAlign=middle;fontFamily=Helvetica;fontSize=11;fontColor=default;labelBackgroundColor=default;endArrow=none;endFill=0;" edge="1" parent="1" source="mWiUurkkeSlw8HyRJ1TI-5" target="mWiUurkkeSlw8HyRJ1TI-9">
          <mxGeometry relative="1" as="geometry" />
        </mxCell>
        <mxCell id="mWiUurkkeSlw8HyRJ1TI-5" value="基于文件系统路径" style="rounded=1;whiteSpace=wrap;html=1;fillColor=#dae8fc;strokeColor=#6c8ebf;fontStyle=1" vertex="1" parent="1">
          <mxGeometry x="690" y="920" width="145" height="50" as="geometry" />
        </mxCell>
        <mxCell id="mWiUurkkeSlw8HyRJ1TI-6" value="基于URL路径" style="rounded=1;whiteSpace=wrap;html=1;fillColor=#dae8fc;strokeColor=#6c8ebf;fontStyle=1" vertex="1" parent="1">
          <mxGeometry x="910" y="920" width="145" height="50" as="geometry" />
        </mxCell>
        <mxCell id="mWiUurkkeSlw8HyRJ1TI-7" value="控制特定IP访问" style="rounded=1;whiteSpace=wrap;html=1;fillColor=#dae8fc;strokeColor=#6c8ebf;fontStyle=1" vertex="1" parent="1">
          <mxGeometry x="1080" y="920" width="145" height="50" as="geometry" />
        </mxCell>
        <mxCell id="mWiUurkkeSlw8HyRJ1TI-8" value="基于目录" style="rounded=1;whiteSpace=wrap;html=1;fillColor=#dae8fc;strokeColor=#6c8ebf;fontStyle=1" vertex="1" parent="1">
          <mxGeometry x="635" y="1040" width="105" height="50" as="geometry" />
        </mxCell>
        <mxCell id="mWiUurkkeSlw8HyRJ1TI-9" value="基于文件" style="rounded=1;whiteSpace=wrap;html=1;fillColor=#dae8fc;strokeColor=#6c8ebf;fontStyle=1" vertex="1" parent="1">
          <mxGeometry x="800" y="1040" width="105" height="50" as="geometry" />
        </mxCell>
        <mxCell id="mWiUurkkeSlw8HyRJ1TI-18" value="日志配置" style="rounded=1;whiteSpace=wrap;html=1;fillColor=#dae8fc;strokeColor=#6c8ebf;fontStyle=1" vertex="1" parent="1">
          <mxGeometry x="275" y="1490" width="120" height="50" as="geometry" />
        </mxCell>
        <mxCell id="mWiUurkkeSlw8HyRJ1TI-19" value="状态页配置" style="rounded=1;whiteSpace=wrap;html=1;fillColor=#dae8fc;strokeColor=#6c8ebf;fontStyle=1" vertex="1" parent="1">
          <mxGeometry x="475" y="1490" width="120" height="50" as="geometry" />
        </mxCell>
        <mxCell id="mWiUurkkeSlw8HyRJ1TI-20" value="虚拟主机配置&amp;nbsp;" style="rounded=1;whiteSpace=wrap;html=1;fillColor=#dae8fc;strokeColor=#6c8ebf;fontStyle=1" vertex="1" parent="1">
          <mxGeometry x="75" y="1490" width="120" height="50" as="geometry" />
        </mxCell>
        <mxCell id="mWiUurkkeSlw8HyRJ1TI-21" value="错误页面配置" style="rounded=1;whiteSpace=wrap;html=1;fillColor=#dae8fc;strokeColor=#6c8ebf;fontStyle=1" vertex="1" parent="1">
          <mxGeometry x="685" y="1490" width="120" height="50" as="geometry" />
        </mxCell>
        <mxCell id="mWiUurkkeSlw8HyRJ1TI-22" value="Apache配置修改2" style="rounded=1;whiteSpace=wrap;html=1;fillColor=#0050ef;fontColor=#ffffff;strokeColor=#001DBC;fontStyle=1;fontSize=14;" vertex="1" parent="1">
          <mxGeometry x="775" y="1340" width="140" height="60" as="geometry" />
        </mxCell>
        <mxCell id="mWiUurkkeSlw8HyRJ1TI-23" value="证书部署&amp;nbsp;" style="rounded=1;whiteSpace=wrap;html=1;fillColor=#dae8fc;strokeColor=#6c8ebf;fontStyle=1" vertex="1" parent="1">
          <mxGeometry x="885" y="1490" width="120" height="50" as="geometry" />
        </mxCell>
        <mxCell id="mWiUurkkeSlw8HyRJ1TI-25" value="重定向" style="rounded=1;whiteSpace=wrap;html=1;fillColor=#dae8fc;strokeColor=#6c8ebf;fontStyle=1" vertex="1" parent="1">
          <mxGeometry x="1105" y="1490" width="120" height="50" as="geometry" />
        </mxCell>
        <mxCell id="mWiUurkkeSlw8HyRJ1TI-26" value="LAMP" style="rounded=1;whiteSpace=wrap;html=1;fillColor=#dae8fc;strokeColor=#6c8ebf;fontStyle=1" vertex="1" parent="1">
          <mxGeometry x="1350" y="1490" width="120" height="50" as="geometry" />
        </mxCell>
        <mxCell id="mWiUurkkeSlw8HyRJ1TI-31" style="edgeStyle=orthogonalEdgeStyle;curved=0;rounded=1;orthogonalLoop=1;jettySize=auto;html=1;exitX=0.5;exitY=1;exitDx=0;exitDy=0;entryX=0.5;entryY=0;entryDx=0;entryDy=0;strokeColor=default;align=center;verticalAlign=middle;fontFamily=Helvetica;fontSize=11;fontColor=default;labelBackgroundColor=default;endArrow=none;endFill=0;" edge="1" parent="1" source="mWiUurkkeSlw8HyRJ1TI-27" target="mWiUurkkeSlw8HyRJ1TI-29">
          <mxGeometry relative="1" as="geometry" />
        </mxCell>
        <mxCell id="mWiUurkkeSlw8HyRJ1TI-32" style="edgeStyle=orthogonalEdgeStyle;curved=0;rounded=1;orthogonalLoop=1;jettySize=auto;html=1;exitX=0.5;exitY=1;exitDx=0;exitDy=0;entryX=0.5;entryY=0;entryDx=0;entryDy=0;strokeColor=default;align=center;verticalAlign=middle;fontFamily=Helvetica;fontSize=11;fontColor=default;labelBackgroundColor=default;endArrow=none;endFill=0;" edge="1" parent="1" source="mWiUurkkeSlw8HyRJ1TI-27" target="mWiUurkkeSlw8HyRJ1TI-30">
          <mxGeometry relative="1" as="geometry" />
        </mxCell>
        <mxCell id="mWiUurkkeSlw8HyRJ1TI-27" value="Apache 和 PHP 之间的传输" style="rounded=1;whiteSpace=wrap;html=1;fillColor=#dae8fc;strokeColor=#6c8ebf;fontStyle=1" vertex="1" parent="1">
          <mxGeometry x="1335" y="1610" width="170" height="50" as="geometry" />
        </mxCell>
        <mxCell id="mWiUurkkeSlw8HyRJ1TI-29" value="模块形式配置" style="rounded=1;whiteSpace=wrap;html=1;fillColor=#dae8fc;strokeColor=#6c8ebf;fontStyle=1" vertex="1" parent="1">
          <mxGeometry x="1250" y="1720" width="105" height="50" as="geometry" />
        </mxCell>
        <mxCell id="mWiUurkkeSlw8HyRJ1TI-30" value="以 PHP-FPM 形式配置" style="rounded=1;whiteSpace=wrap;html=1;fillColor=#dae8fc;strokeColor=#6c8ebf;fontStyle=1" vertex="1" parent="1">
          <mxGeometry x="1465" y="1721.5" width="140" height="50" as="geometry" />
        </mxCell>
      </root>
    </mxGraphModel>
  </diagram>
</mxfile>
